<svg width="186" height="62" viewBox="0 0 186 62" fill="none" xmlns="http://www.w3.org/2000/svg">
<g clip-path="url(#clip0_30_8095)">
<path d="M175.758 0H9.67855C4.35481 0 0.0390625 4.31575 0.0390625 9.63949V51.5636C0.0390625 56.8874 4.35481 61.2031 9.67855 61.2031H175.758C181.081 61.2031 185.397 56.8874 185.397 51.5636V9.63949C185.397 4.31575 181.081 0 175.758 0Z" fill="white"/>
<path d="M56.2051 14.9824V23.6071H59.319C61.8891 23.6071 63.3773 22.0232 63.3773 19.2679C63.3773 16.5544 61.8771 14.9824 59.319 14.9824H56.2051ZM57.5439 16.2018H59.1696C60.9567 16.2018 62.0146 17.3373 62.0146 19.2858C62.0146 21.2641 60.9746 22.3878 59.1696 22.3878H57.5439V16.2018Z" fill="black"/>
<path d="M67.7811 23.7325C69.6817 23.7325 70.8472 22.4594 70.8472 20.3496C70.8472 18.2517 69.6758 16.9727 67.7811 16.9727C65.8805 16.9727 64.709 18.2517 64.709 20.3496C64.709 22.4594 65.8745 23.7325 67.7811 23.7325ZM67.7811 22.5909C66.6635 22.5909 66.0359 21.7721 66.0359 20.3496C66.0359 18.939 66.6635 18.1143 67.7811 18.1143C68.8928 18.1143 69.5264 18.939 69.5264 20.3496C69.5264 21.7661 68.8928 22.5909 67.7811 22.5909Z" fill="black"/>
<path d="M80.6206 17.0981H79.3356L78.1761 22.0649H78.0745L76.7356 17.0981H75.5044L74.1656 22.0649H74.07L72.9045 17.0981H71.6016L73.3945 23.6069H74.7155L76.0543 18.8135H76.1559L77.5007 23.6069H78.8335L80.6206 17.0981Z" fill="black"/>
<path d="M81.9473 23.607H83.2323V19.7997C83.2323 18.7837 83.8359 18.1501 84.7862 18.1501C85.7365 18.1501 86.1908 18.6701 86.1908 19.716V23.607H87.4759V19.3933C87.4759 17.8453 86.6749 16.9727 85.2226 16.9727C84.2424 16.9727 83.5969 17.4089 83.2801 18.1322H83.1844V17.0982H81.9473V23.607Z" fill="black"/>
<path d="M89.3457 23.6071H90.6301V14.5581H89.3457V23.6071Z" fill="black"/>
<path d="M95.3107 23.7325C97.2115 23.7325 98.377 22.4594 98.377 20.3496C98.377 18.2517 97.2054 16.9727 95.3107 16.9727C93.4099 16.9727 92.2383 18.2517 92.2383 20.3496C92.2383 22.4594 93.4038 23.7325 95.3107 23.7325ZM95.3107 22.5909C94.1933 22.5909 93.5655 21.7721 93.5655 20.3496C93.5655 18.939 94.1933 18.1143 95.3107 18.1143C96.422 18.1143 97.0558 18.939 97.0558 20.3496C97.0558 21.7661 96.422 22.5909 95.3107 22.5909Z" fill="black"/>
<path d="M102.054 22.6327C101.354 22.6327 100.846 22.2921 100.846 21.7064C100.846 21.1325 101.253 20.8278 102.149 20.7679L103.738 20.6664V21.2103C103.738 22.0171 103.021 22.6327 102.054 22.6327ZM101.725 23.7145C102.579 23.7145 103.291 23.344 103.679 22.6925H103.78V23.607H105.018V19.1602C105.018 17.7855 104.098 16.9727 102.465 16.9727C100.989 16.9727 99.9376 17.6899 99.8056 18.8075H101.049C101.192 18.3474 101.689 18.0844 102.406 18.0844C103.285 18.0844 103.738 18.4728 103.738 19.1602V19.722L101.976 19.8237C100.427 19.9192 99.5547 20.5947 99.5547 21.7661C99.5547 22.9555 100.469 23.7145 101.725 23.7145Z" fill="black"/>
<path d="M109.225 23.7146C110.121 23.7146 110.88 23.2903 111.269 22.579H111.371V23.6071H112.602V14.5581H111.317V18.1323H111.221C110.869 17.4151 110.115 16.9907 109.225 16.9907C107.581 16.9907 106.523 18.2937 106.523 20.3497C106.523 22.4117 107.569 23.7146 109.225 23.7146ZM109.59 18.1443C110.665 18.1443 111.341 18.9989 111.341 20.3556C111.341 21.7183 110.671 22.5611 109.59 22.5611C108.502 22.5611 107.851 21.7303 107.851 20.3497C107.851 18.981 108.508 18.1443 109.59 18.1443Z" fill="black"/>
<path d="M120.629 23.7325C122.53 23.7325 123.695 22.4594 123.695 20.3496C123.695 18.2517 122.524 16.9727 120.629 16.9727C118.728 16.9727 117.557 18.2517 117.557 20.3496C117.557 22.4594 118.722 23.7325 120.629 23.7325ZM120.629 22.5909C119.512 22.5909 118.884 21.7721 118.884 20.3496C118.884 18.939 119.512 18.1143 120.629 18.1143C121.74 18.1143 122.374 18.939 122.374 20.3496C122.374 21.7661 121.74 22.5909 120.629 22.5909Z" fill="black"/>
<path d="M125.244 23.607H126.529V19.7997C126.529 18.7837 127.133 18.1501 128.083 18.1501C129.033 18.1501 129.488 18.6701 129.488 19.716V23.607H130.773V19.3933C130.773 17.8453 129.972 16.9727 128.519 16.9727C127.539 16.9727 126.894 17.4089 126.578 18.1322H126.481V17.0982H125.244V23.607Z" fill="black"/>
<path d="M136.383 15.4785V17.1281H135.35V18.2099H136.383V21.8857C136.383 23.1409 136.951 23.6429 138.38 23.6429C138.631 23.6429 138.87 23.613 139.079 23.5772V22.5073C138.899 22.5253 138.786 22.5372 138.589 22.5372C137.949 22.5372 137.668 22.2384 137.668 21.557V18.2099H139.079V17.1281H137.668V15.4785H136.383Z" fill="black"/>
<path d="M140.652 23.6071H141.938V19.8057C141.938 18.8196 142.523 18.1561 143.575 18.1561C144.484 18.1561 144.968 18.6821 144.968 19.7221V23.6071H146.253V19.4053C146.253 17.8573 145.398 16.9787 144.012 16.9787C143.031 16.9787 142.344 17.4151 142.028 18.1443H141.925V14.5581H140.652V23.6071Z" fill="black"/>
<path d="M150.734 18.0664C151.684 18.0664 152.306 18.7299 152.337 19.7519H149.049C149.121 18.7358 149.784 18.0664 150.734 18.0664ZM152.33 21.8498C152.091 22.3578 151.559 22.6388 150.782 22.6388C149.754 22.6388 149.091 21.9155 149.049 20.774V20.7022H153.645V20.2539C153.645 18.2098 152.552 16.9727 150.74 16.9727C148.906 16.9727 147.74 18.2936 147.74 20.3735C147.74 22.4535 148.881 23.7325 150.746 23.7325C152.234 23.7325 153.275 23.0152 153.568 21.8498H152.33Z" fill="black"/>
<path d="M67.2345 48.0884H70.1029L63.7972 30.6235H60.8683L54.5625 48.0884H57.3825L58.9801 43.3681H65.6369L67.2345 48.0884ZM62.2722 33.5283H62.3448L64.947 41.1896H59.67L62.2722 33.5283Z" fill="black"/>
<path d="M79.0336 34.811C77.206 34.811 75.5842 35.7067 74.8459 37.1228H74.7854V34.9442H72.2559V52.4453H74.8822V45.9338H74.9306C75.7173 47.3862 77.206 48.2213 79.0941 48.2213C82.3983 48.2213 84.5889 45.5829 84.5889 41.5162C84.5889 37.4374 82.3862 34.811 79.0336 34.811ZM78.368 45.9943C76.2741 45.9943 74.8701 44.2031 74.858 41.5162C74.8701 38.8413 76.2862 37.038 78.368 37.038C80.4981 37.038 81.902 38.8051 81.902 41.5162C81.902 44.2394 80.4981 45.9943 78.368 45.9943Z" fill="black"/>
<path d="M93.9571 34.811C92.1297 34.811 90.5078 35.7067 89.7699 37.1228H89.7096V34.9442H87.1797V52.4453H89.8057V45.9338H89.8547C90.6416 47.3862 92.1297 48.2213 94.0183 48.2213C97.3224 48.2213 99.5126 45.5829 99.5126 41.5162C99.5126 37.4374 97.3101 34.811 93.9571 34.811ZM93.2917 45.9943C91.1977 45.9943 89.7944 44.2031 89.7821 41.5162C89.7944 38.8413 91.2099 37.038 93.2917 37.038C95.4216 37.038 96.8257 38.8051 96.8257 41.5162C96.8257 44.2394 95.4216 45.9943 93.2917 45.9943Z" fill="black"/>
<path d="M107.803 43.2228C107.971 46.3818 110.586 48.3787 114.459 48.3787C118.598 48.3787 121.2 46.3333 121.2 43.0655C121.2 40.5117 119.712 39.0715 116.129 38.2243L114.205 37.7522C111.954 37.1955 111.034 36.4693 111.034 35.2348C111.034 33.6855 112.474 32.6205 114.58 32.6205C116.686 32.6205 118.126 33.6735 118.283 35.4163H120.922C120.837 32.4026 118.308 30.333 114.616 30.333C110.888 30.333 108.263 32.4026 108.263 35.4163C108.263 37.849 109.751 39.3498 112.959 40.1245L115.221 40.6691C117.485 41.2259 118.441 42.0367 118.441 43.3923C118.441 44.9536 116.856 46.0913 114.653 46.0913C112.353 46.0913 110.671 44.9536 110.477 43.2228H107.803Z" fill="black"/>
<path d="M124.649 31.9912V34.9444H122.834V37.0141H124.649V44.6269C124.649 47.1686 125.666 48.1731 128.292 48.1731C128.861 48.1731 129.478 48.1126 129.769 48.04V45.9704C129.6 45.9946 129.152 46.0309 128.873 46.0309C127.772 46.0309 127.263 45.4984 127.263 44.3606V37.0141H129.781V34.9444H127.263V31.9912H124.649Z" fill="black"/>
<path d="M137.804 48.2457C141.604 48.2457 144.012 45.6556 144.012 41.5163C144.012 37.3771 141.591 34.7749 137.804 34.7749C134.015 34.7749 131.582 37.3892 131.582 41.5163C131.582 45.6556 134.003 48.2457 137.804 48.2457ZM137.804 46.0671C135.577 46.0671 134.245 44.3848 134.245 41.5163C134.245 38.66 135.577 36.9535 137.804 36.9535C140.031 36.9535 141.35 38.6479 141.35 41.5163C141.35 44.3848 140.031 46.0671 137.804 46.0671Z" fill="black"/>
<path d="M146.615 48.0882H149.242V40.2453C149.242 38.3936 150.33 37.1953 152.061 37.1953C152.582 37.1953 153.042 37.268 153.259 37.3527V34.8958C153.054 34.8473 152.727 34.811 152.339 34.811C150.79 34.811 149.58 35.6945 149.168 37.159H149.12V34.9442H146.615V48.0882Z" fill="black"/>
<path d="M160.351 36.9171C162.264 36.9171 163.558 38.2727 163.619 40.3182H156.95C157.095 38.2969 158.463 36.9171 160.351 36.9171ZM163.607 44.2395C163.244 45.3894 162.046 46.1155 160.52 46.1155C158.366 46.1155 156.938 44.6147 156.938 42.3393V42.182H166.245V41.2622C166.245 37.2802 163.97 34.7749 160.363 34.7749C156.684 34.7749 154.287 37.4497 154.287 41.5648C154.287 45.6798 156.66 48.2457 160.472 48.2457C163.426 48.2457 165.737 46.5997 166.112 44.2395H163.607Z" fill="black"/>
<path d="M39.3199 31.1559C39.2805 26.8701 42.9036 24.7851 43.0693 24.688C41.0175 21.7586 37.837 21.3583 36.7193 21.3264C34.0481 21.0512 31.4571 22.8915 30.0964 22.8915C28.7085 22.8915 26.613 21.353 24.3546 21.3982C21.4485 21.4421 18.7298 23.0897 17.2387 25.648C14.1614 30.8646 16.4565 38.5307 19.4047 42.7473C20.8795 44.8124 22.6028 47.1182 24.8585 47.0371C27.0652 46.948 27.8896 45.6594 30.5526 45.6594C33.1912 45.6594 33.9653 47.0371 36.2657 46.9853C38.6341 46.948 40.1252 44.9108 41.5484 42.8271C43.2527 40.4602 43.9371 38.1291 43.9643 38.0094C43.9086 37.9908 39.3647 36.2927 39.3199 31.1559Z" fill="black"/>
<path d="M34.9729 18.5521C36.1598 17.0987 36.9719 15.1213 36.7465 13.1147C35.0286 13.1892 32.8802 14.2783 31.6431 15.6998C30.5486 16.9524 29.5708 19.0055 29.8234 20.9363C31.7531 21.0773 33.7344 19.9829 34.9729 18.5521Z" fill="black"/>
</g>
<defs>
<clipPath id="clip0_30_8095">
<rect width="185.358" height="61.2031" fill="white" transform="translate(0.0390625)"/>
</clipPath>
</defs>
</svg>
