<svg width="186" height="62" viewBox="0 0 186 62" fill="none" xmlns="http://www.w3.org/2000/svg">
<g clip-path="url(#clip0_30_8080)">
<path d="M176.211 0H10.1317C4.80793 0 0.492188 4.31575 0.492188 9.63949V51.5636C0.492188 56.8874 4.80793 61.2031 10.1317 61.2031H176.211C181.534 61.2031 185.85 56.8874 185.85 51.5636V9.63949C185.85 4.31575 181.534 0 176.211 0Z" fill="white"/>
<path d="M17.6554 49.0416L30.6821 35.5097L17.6663 22.002C17.3187 22.2122 17.1035 22.6991 17.1035 23.3365V47.7199C17.1081 48.3573 17.3155 48.8087 17.6554 49.0416Z" fill="black"/>
<path d="M31.1511 35.1364L35.0314 31.1051L19.2297 22.1043C18.9636 21.9437 18.6614 21.8588 18.3535 21.8584L31.1495 35.1348L31.1511 35.1364Z" fill="black"/>
<path d="M31.149 35.8848L18.3125 49.2194C18.6347 49.2249 18.952 49.1376 19.2291 48.967L35.062 39.9419L31.149 35.8848Z" fill="black"/>
<path d="M40.7544 34.371L35.496 31.3701L31.5098 35.5115L35.5257 39.6786L40.7528 36.6859C41.8644 36.0501 41.8644 35.0035 40.7544 34.371Z" fill="black"/>
<path d="M86.8987 31.8788C83.6529 31.8788 81.0013 34.3564 81.0013 37.7749C81.0013 41.1656 83.6529 43.6692 86.8987 43.6692C90.1517 43.6692 92.8026 41.1656 92.8026 37.7749C92.8026 34.3564 90.1517 31.8788 86.8987 31.8788ZM86.8987 41.3475C85.1177 41.3475 83.5854 39.873 83.5854 37.7749C83.5854 35.649 85.1177 34.2005 86.8987 34.2005C88.6793 34.2005 90.219 35.649 90.219 37.7749C90.219 39.873 88.6793 41.3475 86.8987 41.3475ZM74.0311 31.8788C70.7783 31.8788 68.1337 34.3564 68.1337 37.7749C68.1337 41.1656 70.7783 43.6692 74.0311 43.6692C77.2821 43.6692 79.9285 41.1656 79.9285 37.7749C79.9285 34.3564 77.2821 31.8788 74.0311 31.8788ZM74.0311 41.3475C72.2484 41.3475 70.711 39.873 70.711 37.7749C70.711 35.649 72.2484 34.2005 74.0311 34.2005C75.8121 34.2005 77.3443 35.649 77.3443 37.7749C77.3443 39.873 75.8121 41.3475 74.0311 41.3475ZM58.7193 33.6859V36.1912H64.6841C64.5095 37.5912 64.0431 38.6204 63.328 39.3377C62.4574 40.204 61.1013 41.1656 58.7193 41.1656C55.0485 41.1656 52.1741 38.1941 52.1741 34.5123C52.1741 30.8305 55.0485 27.8591 58.7193 27.8591C60.704 27.8591 62.1482 28.637 63.214 29.6454L64.9743 27.8798C63.4834 26.4522 61.5004 25.3555 58.7193 25.3555C53.6855 25.3555 49.4551 29.4635 49.4551 34.5123C49.4551 39.5612 53.6855 43.6692 58.7193 43.6692C61.44 43.6692 63.4834 42.7752 65.0899 41.098C66.7362 39.4468 67.2492 37.1251 67.2492 35.2504C67.2492 34.6683 67.2023 34.1329 67.1143 33.6859H58.7193ZM121.331 35.6282C120.846 34.3096 119.348 31.8788 116.298 31.8788C113.275 31.8788 110.758 34.268 110.758 37.7749C110.758 41.0772 113.249 43.6692 116.588 43.6692C119.288 43.6692 120.846 42.0181 121.487 41.0564L119.483 39.7171C118.815 40.6978 117.904 41.3475 116.588 41.3475C115.28 41.3475 114.342 40.7463 113.741 39.5612L121.602 36.2987L121.331 35.6282ZM113.316 37.5912C113.249 35.318 115.076 34.1537 116.386 34.1537C117.412 34.1537 118.282 34.6681 118.573 35.4047L113.316 37.5912ZM106.927 43.3105H109.51V25.9844H106.927V43.3105ZM102.694 33.1921H102.607C102.028 32.5025 100.92 31.8788 99.5175 31.8788C96.5736 31.8788 93.8824 34.4707 93.8824 37.7939C93.8824 41.0981 96.5736 43.6692 99.5175 43.6692C100.92 43.6692 102.028 43.0403 102.607 42.3299H102.694V43.1754C102.694 45.4296 101.493 46.6407 99.5568 46.6407C97.9787 46.6407 96.9985 45.4972 96.5946 44.5356L94.3476 45.4763C94.9955 47.0391 96.71 48.9624 99.5568 48.9624C102.587 48.9624 105.144 47.1743 105.144 42.8237V32.2374H102.694V33.1921ZM99.7387 41.3475C97.9577 41.3475 96.4669 39.8523 96.4669 37.7939C96.4669 35.7165 97.9577 34.2005 99.7387 34.2005C101.493 34.2005 102.878 35.7165 102.878 37.7939C102.878 39.8523 101.493 41.3475 99.7387 41.3475ZM133.43 25.9844H127.249V43.3105H129.827V36.7457H133.43C136.293 36.7457 139.099 34.6683 139.099 31.3641C139.099 28.0618 136.286 25.9844 133.43 25.9844ZM133.497 34.3356H129.827V28.3945H133.497C135.422 28.3945 136.52 29.9971 136.52 31.3641C136.52 32.7053 135.422 34.3356 133.497 34.3356ZM149.43 31.8458C147.567 31.8458 145.631 32.6706 144.834 34.4985L147.121 35.4601C147.614 34.4985 148.519 34.1866 149.476 34.1866C150.813 34.1866 152.169 34.9923 152.19 36.4147V36.5966C151.724 36.3265 150.725 35.9261 149.497 35.9261C147.034 35.9261 144.524 37.2862 144.524 39.8245C144.524 42.1462 146.541 43.6415 148.81 43.6415C150.543 43.6415 151.501 42.8566 152.101 41.9435H152.19V43.2828H154.679V36.6365C154.679 33.5646 152.392 31.8458 149.43 31.8458ZM149.118 41.3406C148.275 41.3406 147.1 40.9213 147.1 39.8731C147.1 38.5321 148.566 38.0174 149.833 38.0174C150.968 38.0174 151.501 38.2686 152.19 38.5997C151.988 40.204 150.611 41.3406 149.118 41.3406ZM163.748 32.2253L160.785 39.7362H160.697L157.634 32.2253H154.855L159.457 42.7215L156.832 48.5621H159.525L166.615 32.2253H163.748ZM140.516 43.3105H143.1V25.9844H140.516V43.3105Z" fill="black"/>
<path d="M53.5319 20.2638C52.8715 20.2638 52.2624 20.1099 51.7046 19.8022C51.1532 19.488 50.714 19.0585 50.387 18.5134C50.06 17.9621 49.8965 17.3465 49.8965 16.6668C49.8965 15.9872 50.06 15.3749 50.387 14.8299C50.714 14.2785 51.1532 13.8489 51.7046 13.5411C52.2624 13.2269 52.8715 13.0698 53.5319 13.0698C54.0705 13.0698 54.561 13.166 55.0034 13.3584C55.4522 13.5443 55.8369 13.8104 56.1576 14.1566L55.2631 15.0318C55.0323 14.7882 54.7758 14.6055 54.4937 14.4836C54.2179 14.3618 53.8942 14.3009 53.5223 14.3009C53.0992 14.3009 52.7112 14.4003 52.3586 14.599C52.0059 14.7914 51.7238 15.0703 51.5122 15.4358C51.307 15.7948 51.2045 16.2052 51.2045 16.6668C51.2045 17.1285 51.3103 17.542 51.5219 17.9075C51.7335 18.2666 52.0155 18.5455 52.3682 18.7442C52.7272 18.9366 53.1184 19.0328 53.5416 19.0328C54.1827 19.0328 54.7084 18.8436 55.1189 18.4653C55.247 18.3499 55.3593 18.2025 55.4555 18.0229C55.5517 17.8434 55.6221 17.6478 55.6671 17.4362H53.5031V16.3302H56.8789C56.9237 16.5098 56.9462 16.7118 56.9462 16.9361C56.9462 17.3914 56.8756 17.8146 56.7346 18.2056C56.6 18.5968 56.3915 18.9398 56.1095 19.2347C55.8017 19.5682 55.4298 19.8246 54.9938 20.0041C54.5578 20.1773 54.0705 20.2638 53.5319 20.2638Z" fill="black"/>
<path d="M58.3809 13.2236H62.7473V14.4547H59.6792V16.0512H62.4395V17.2823H59.6792V18.8788H62.7473V20.1099H58.3809V13.2236Z" fill="black"/>
<path d="M65.6696 14.4547H63.7461V13.2236H68.8915V14.4547H66.968V20.1099H65.6696V14.4547Z" fill="black"/>
<path d="M72.5684 13.2236H73.8667V20.1099H72.5684V13.2236Z" fill="black"/>
<path d="M77.0192 14.4547H75.0957V13.2236H80.2411V14.4547H78.3176V20.1099H77.0192V14.4547Z" fill="black"/>
<path d="M86.9798 20.2638C86.3066 20.2638 85.6943 20.1068 85.1428 19.7925C84.5979 19.472 84.1683 19.036 83.8541 18.4846C83.5399 17.9332 83.3828 17.3273 83.3828 16.6668C83.3828 16.0064 83.5399 15.4005 83.8541 14.8491C84.1683 14.2977 84.5979 13.8649 85.1428 13.5507C85.6943 13.2302 86.3066 13.0698 86.9798 13.0698C87.653 13.0698 88.2619 13.2302 88.8075 13.5507C89.3583 13.8649 89.7911 14.2977 90.1059 14.8491C90.4198 15.4005 90.5771 16.0064 90.5771 16.6668C90.5771 17.3273 90.4198 17.9332 90.1059 18.4846C89.7911 19.036 89.3583 19.472 88.8075 19.7925C88.2619 20.1068 87.653 20.2638 86.9798 20.2638ZM86.9798 19.0328C87.403 19.0328 87.7909 18.9334 88.1439 18.7346C88.4962 18.5359 88.7717 18.257 88.971 17.8979C89.1756 17.5389 89.2788 17.1285 89.2788 16.6668C89.2788 16.2052 89.1756 15.7948 88.971 15.4358C88.7717 15.0768 88.4962 14.7979 88.1439 14.599C87.7909 14.4003 87.403 14.3009 86.9798 14.3009C86.5566 14.3009 86.1688 14.4003 85.8161 14.599C85.4698 14.7979 85.1942 15.0768 84.989 15.4358C84.7902 15.7948 84.6908 16.2052 84.6908 16.6668C84.6908 17.1285 84.7902 17.5389 84.989 17.8979C85.1942 18.257 85.4698 18.5359 85.8161 18.7346C86.1688 18.9334 86.5566 19.0328 86.9798 19.0328Z" fill="black"/>
<path d="M92 13.2236H93.51L96.2798 17.8401H96.3568L96.2798 16.5129V13.2236H97.5686V20.1099H96.2029L93.2791 15.2337H93.2022L93.2791 16.561V20.1099H92V13.2236Z" fill="black"/>
</g>
<defs>
<clipPath id="clip0_30_8080">
<rect width="185.358" height="61.2031" fill="white" transform="translate(0.492188)"/>
</clipPath>
</defs>
</svg>
