<?xml version="1.0" encoding="utf-8" ?>
<svg xmlns="http://www.w3.org/2000/svg" xmlns:xlink="http://www.w3.org/1999/xlink" width="1024" height="1024">
	<path transform="scale(2 2)" d="M122.846 148.354C103.337 126.461 87.446 113.607 76.492 83.3876C73.4308 74.9424 65.6098 56.9923 77.593 53.066C83.5909 52.5196 87.2182 54.646 88.6524 60.9065C94.2302 85.2548 106.509 106.131 123.787 124.216C128.471 129.118 133.753 133.39 138.426 138.282C147.088 134.481 154.958 128.986 163.632 125.108C185.919 115.142 205.008 116.112 226.963 124.517C240.163 114.289 270.417 109.486 286.119 113.484C292.34 115.069 308.339 120.299 312.057 125.002C315.287 129.087 313.11 135.897 308.664 138.099C305.979 139.429 303.056 139.128 300.172 139.476C292.07 140.454 284.311 144.437 278.019 149.481C334.988 175.696 377.892 226.353 388.283 289.2C391.74 310.107 386.376 303.835 398.043 321.588C407.427 335.869 413.479 345.271 425.442 358.005C429.729 362.568 434.877 366.424 438.887 371.225C444.215 377.605 437.994 386.164 430.395 384.757C422.746 383.34 395.957 350.518 391.378 344.168C390.215 342.644 389.561 341.164 388.92 339.378C387.608 343.521 386.976 347.744 385.927 351.943C378.919 379.992 364.953 404.137 343.989 424.051C337.084 430.611 310.482 452.156 300.875 449.471C289.189 446.206 295.694 434.383 298.321 427.493C310.37 395.891 310.463 361.663 294.321 331.252C274.792 294.459 245.273 276.529 206.12 266.077C172.012 256.972 133.502 253.349 115.894 216.386C113.093 210.506 113.602 209.13 108.028 205.474C96.3067 197.785 90.7998 185.23 95.3004 171.374C99.3923 158.776 111.958 153.855 122.846 148.354ZM271.476 129.611C260.327 130.179 248.47 133.65 238.487 138.677C223.761 146.093 231.44 144.724 215.7 139.088C186.52 128.64 163.473 145.381 139.27 158.794C133.713 161.873 117.299 169.749 113.606 173.827C109.648 178.197 111.083 185.855 115.39 189.422C121.206 194.238 130.405 190.59 137.016 189.684C150.174 187.88 164.168 189.717 176.472 194.748C183.614 197.669 189.962 202.239 198.032 201.805C210.016 201.161 212.439 193.333 219.252 187.494C227.531 180.397 242.229 190.552 226.963 205.056C240.599 218.902 248.809 243.75 248.983 263.054C275.395 275.41 296.769 297.76 310.325 323.284C324.142 350.166 330.657 391.807 319.664 420.994C345.725 403.488 364.022 372.066 370.004 341.533C377.414 303.722 367.174 261.01 345.81 229.26C328.453 203.466 297.225 174.451 267.027 163.797C261.705 171.391 251.5 170.173 249.997 161.337C248.284 151.265 267.582 134.203 274.843 129.611L271.476 129.611ZM144.151 207.044C139.857 207.167 135.705 207.804 131.475 208.496C150.561 243.311 191.211 242.058 224.385 253.213C226.45 253.93 228.502 254.644 230.612 255.22C229.393 241.008 222.379 226.382 212.623 216.072C192.804 224.612 185.739 218.031 169.24 211.149C163.551 208.776 150.279 205.583 144.151 207.044Z"/>
	<path transform="scale(2 2)" d="M174.021 172.97C160.355 175.704 158.746 150.791 183.171 148.354C191.824 147.908 201.459 163.214 181.283 165.778C179.372 169.266 177.887 171.527 174.021 172.97Z"/>
</svg>
