<svg width="121" height="271" viewBox="0 0 121 271" fill="none" xmlns="http://www.w3.org/2000/svg">
<g clip-path="url(#clip0_30_8209)">
<mask id="mask0_30_8209" style="mask-type:alpha" maskUnits="userSpaceOnUse" x="1" y="120" width="23" height="31">
<path d="M4.74609 140.048C4.74609 144.687 8.4873 147.605 12.5278 147.605C15.446 147.605 20.1599 146.632 20.1599 139.449C20.1599 137.429 17.3166 135.559 12.6026 134.96C9.3391 134.546 5.04539 132.865 5.04539 128.9C5.04539 124.261 10.5076 123.587 12.453 123.587C14.0991 123.587 19.5613 124.485 19.5613 129.423" stroke="#09FF00" stroke-width="6.4349"/>
</mask>
<g mask="url(#mask0_30_8209)">
<path d="M15.6431 132.881C11.9071 132.211 8.09242 131.146 8.09242 129.133C8.09242 127.477 9.94073 126.175 12.3004 126.175C14.2274 126.175 15.9576 127.516 16.469 129.291H22.7219C22.7219 124.281 17.9634 120.494 12.3004 120.494C6.00812 120.494 1.99679 124.163 1.99679 129.37C1.99679 133.434 5.85084 135.682 10.4519 136.747C14.6207 137.734 17.1375 138.325 17.1375 140.692C17.1375 143.099 15.2104 144.48 12.3004 144.48C9.78345 144.48 8.01371 142.586 7.7385 140.14H1.60352C1.60352 145.505 6.20475 150.16 12.3004 150.16C18.9859 150.16 23.2331 146.137 23.2331 140.692C23.2331 136.195 19.4971 133.591 15.6431 132.881Z" fill="white"/>
</g>
<mask id="mask1_30_8209" style="mask-type:alpha" maskUnits="userSpaceOnUse" x="24" y="127" width="26" height="24">
<path d="M46.1993 150.087C46.1993 150.087 45.9748 141.183 45.9748 138.864C45.9748 135.422 43.0566 130.334 36.1728 130.334C31.4589 130.334 28.0918 135.272 28.0918 139.612C28.0918 144.999 32.9554 147.618 36.9959 147.618C39.914 147.618 45.9748 145.897 45.9 137.367" stroke="#09FF00" stroke-width="6.28525"/>
</mask>
<g mask="url(#mask1_30_8209)">
<path d="M36.8187 127.608C30.3692 127.608 25.1387 132.657 25.1387 138.89C25.1387 145.124 30.3692 150.173 36.8187 150.173C39.3749 150.173 41.6558 148.871 42.9929 146.899V149.542H48.4986V138.89C48.4986 132.657 43.2683 127.608 36.8187 127.608ZM36.9367 144.808C33.6725 144.808 31.0377 142.165 31.0377 138.89C31.0377 135.616 33.6725 132.973 36.9367 132.973C40.2008 132.973 42.8356 135.616 42.8356 138.89C42.8356 142.165 40.2008 144.808 36.9367 144.808Z" fill="white"/>
</g>
<path d="M58.1412 130.021V121.145H52.2422V149.549H57.7479L57.8726 143.36L57.8863 139.097L58.0731 133.405L58.1412 130.021ZM63.8042 132.98C60.54 132.98 67.0683 132.98 63.8042 132.98V132.98Z" fill="white"/>
<mask id="mask2_30_8209" style="mask-type:alpha" maskUnits="userSpaceOnUse" x="53" y="127" width="23" height="24">
<path d="M56.6516 138.767C56.6508 138.814 56.6504 138.861 56.6504 138.908C56.6505 143.422 60.1805 147.087 64.5284 147.087C68.8762 147.087 72.4062 143.422 72.4062 138.908C72.4062 134.394 68.8762 130.729 64.5284 130.729C60.2259 130.729 56.7243 134.318 56.6516 138.767Z" stroke="#09FF00" stroke-width="6.4349"/>
</mask>
<g mask="url(#mask2_30_8209)">
<path d="M63.9199 127.615C61.6783 127.615 59.6333 128.522 58.1389 130.021C58.1389 130.021 55.5018 131.913 55.6506 138.924C55.7748 144.781 57.7457 146.906 57.7457 146.906C59.0828 148.878 61.3637 150.18 63.9199 150.18C70.3696 150.18 75.5999 145.13 75.5999 138.897C75.5999 132.664 70.3696 127.615 63.9199 127.615ZM63.8019 144.815C60.5378 144.815 57.903 142.172 57.903 138.897C57.903 135.623 60.5378 132.98 63.8019 132.98C67.0661 132.98 69.7009 135.623 69.7009 138.897C69.7009 142.172 67.0661 144.815 63.8019 144.815Z" fill="white"/>
</g>
<path d="M78.3574 149.523H84.2566V121.119H78.3574V149.523Z" fill="white"/>
<mask id="mask3_30_8209" style="mask-type:alpha" maskUnits="userSpaceOnUse" x="86" y="127" width="26" height="25">
<path d="M92.7397 138.908H107.779C107.779 138.908 108.303 130.528 98.8004 130.528C90.5698 130.528 89.6719 137.711 89.6719 139.058C89.6719 140.405 91.3928 147.738 99.0249 147.738C104.263 147.738 106.582 144.445 106.582 142.35" stroke="#09FF00" stroke-width="6.73419"/>
</mask>
<g mask="url(#mask3_30_8209)">
<path d="M98.8055 127.503C92.2778 127.503 87.0078 132.552 87.0078 138.785C87.0078 145.018 92.2778 150.068 98.8055 150.068C103.997 150.068 108.401 146.873 109.975 142.415H103.446C102.385 143.795 100.694 144.703 98.8055 144.703C96.2495 144.703 94.126 143.085 93.261 140.837H110.408C110.524 140.166 110.604 139.495 110.604 138.785C110.604 132.552 105.335 127.503 98.8055 127.503ZM93.261 136.734C94.126 134.485 96.2495 132.868 98.8055 132.868C101.323 132.868 103.485 134.485 104.351 136.734H93.261Z" fill="white"/>
</g>
<path d="M115.486 146.629C115.486 146.629 115.486 146.63 115.486 146.63" stroke="white" stroke-width="6.28525" stroke-linecap="round"/>
</g>
<defs>
<clipPath id="clip0_30_8209">
<rect width="119.719" height="269.969" fill="white" transform="translate(0.40625 0.343628)"/>
</clipPath>
</defs>
</svg>
