<svg width="40" height="40" viewBox="0 0 40 40" fill="none" xmlns="http://www.w3.org/2000/svg">
<g clip-path="url(#clip0_30_7860)">
<path fill-rule="evenodd" clip-rule="evenodd" d="M36.1882 10.1214C36.1882 8.34444 34.7477 6.90393 32.9708 6.90393H7.23113C5.45418 6.90393 4.01367 8.34444 4.01367 10.1214V29.4261C4.01367 31.2031 5.45418 32.6436 7.23113 32.6436H32.9708C34.7477 32.6436 36.1882 31.2031 36.1882 29.4261V10.1214ZM16.8835 27.013C16.8835 27.4573 16.5234 27.8174 16.0792 27.8174H11.253C10.8087 27.8174 10.4486 27.4573 10.4486 27.013V25.4043C10.4486 24.96 10.8087 24.5999 11.253 24.5999H16.0792C16.5234 24.5999 16.8835 24.96 16.8835 25.4043V27.013ZM32.1663 19.7737C32.6106 19.7737 32.9708 19.4136 32.9708 18.9694V15.752C32.9708 15.3077 32.6106 14.9475 32.1663 14.9475H8.03549C7.59125 14.9475 7.23113 15.3077 7.23113 15.752V18.9694C7.23113 19.4136 7.59125 19.7737 8.03549 19.7737H32.1663Z" fill="#6FDBD4"/>
</g>
<defs>
<clipPath id="clip0_30_7860">
<rect width="38.6094" height="38.6094" fill="white" transform="translate(0.796875 0.46875)"/>
</clipPath>
</defs>
</svg>
