<svg width="124" height="47" viewBox="0 0 124 47" fill="none" xmlns="http://www.w3.org/2000/svg">
<g clip-path="url(#clip0_30_7831)">
<path fill-rule="evenodd" clip-rule="evenodd" d="M44.2295 14.2047V27.8623H47.8015H51.1634V22.6094C51.1634 19.1424 51.1634 17.2514 51.1634 17.0412C51.2684 16.516 51.3735 15.9907 51.6887 15.5704C52.1089 14.835 52.8443 14.5199 53.6847 14.6249C54.8404 14.73 55.5758 15.3603 55.7859 16.7261C55.7859 16.9363 55.7859 19.0373 55.7859 22.3992V27.7572H59.1478H62.5097V21.4537C62.5097 16.0957 62.5097 15.0452 62.4046 14.5199C62.1945 12.6289 61.5642 11.158 60.4085 10.1074C59.4629 9.16189 58.3074 8.6366 56.9416 8.42649C56.4163 8.32143 54.9455 8.42649 54.5253 8.53154C53.2645 8.84672 52.319 9.26695 51.4785 10.2125L50.9532 10.6327V5.58991V0.547119H47.5914H44.2295V14.2047ZM115.88 0.757237C115.669 1.17747 108.84 17.6716 108.84 17.6716C108.84 17.6716 110.626 17.6716 112.833 17.6716H116.825L120.397 9.16189C122.393 4.43428 123.969 0.547119 123.969 0.547119C123.969 0.547119 122.182 0.547119 119.976 0.547119H115.984L115.88 0.757237ZM29.7315 8.53154C28.2607 8.74166 27.105 9.16189 25.9494 9.89731C23.6381 11.3681 22.1674 13.8895 21.747 16.8312C21.537 18.1969 21.642 19.8778 21.9572 21.1386C22.7976 24.3953 25.0039 26.9168 27.8405 27.8623C28.891 28.1774 29.3113 28.2825 30.572 28.2825C31.5175 28.2825 31.8326 28.2825 32.1479 28.1774C33.5136 27.8623 34.4591 27.337 35.2996 26.4966L35.7198 26.0762V26.9168V27.7572H38.9766H42.2334V18.302V8.84672H38.9766H35.7198V9.68718V10.5277L35.4047 10.2125C34.6692 9.37201 33.6186 8.84672 32.2528 8.53154C31.8326 8.42649 31.6226 8.42649 30.782 8.42649C30.2568 8.53155 29.8365 8.53154 29.7315 8.53154ZM72.5953 8.53154C70.8092 8.74166 68.9182 9.58212 67.5524 10.6327C64.926 12.8389 63.5603 16.3059 64.0856 19.8778C64.6108 23.87 67.4475 26.9168 71.4396 27.9673C72.28 28.1774 73.1206 28.2825 74.1711 28.2825C76.0621 28.2825 77.428 27.9674 78.8988 27.2319C81.8403 25.7611 83.7314 23.1347 84.1516 19.8778C84.2567 19.0373 84.2567 17.6716 84.1516 16.9363C83.9416 15.3603 83.3112 13.7844 82.3657 12.5238C81.9454 11.9985 81.105 11.0529 80.5797 10.6327C79.1089 9.47708 77.428 8.74166 75.5369 8.53154C74.8015 8.42649 73.3307 8.42649 72.5953 8.53154ZM94.0272 8.53154C92.2412 8.74166 90.4551 9.47708 89.0894 10.6327C88.5641 11.0529 87.6186 11.9985 87.3034 12.5238C86.3579 13.7844 85.8326 15.3603 85.5175 16.9363C85.4124 17.6716 85.4124 19.1424 85.5175 19.8778C86.1477 24.0802 89.1945 27.337 93.3968 28.1774C94.2372 28.3876 94.6574 28.3876 95.603 28.3876C97.389 28.3876 98.9648 28.0724 100.436 27.2319C104.323 25.2358 106.424 20.8233 105.479 16.3059C104.638 12.1035 101.276 9.05683 96.9688 8.53154C96.2334 8.42649 94.7625 8.42649 94.0272 8.53154ZM0 8.95178C0 8.95178 1.78598 13.2591 3.99221 18.512C6.19844 23.765 7.98443 28.0724 7.98443 28.0724C7.98443 28.0724 7.35408 29.6483 6.51361 31.5393C5.67315 33.4304 5.04279 34.9012 5.04279 35.0063C5.04279 35.1113 6.61867 35.0063 8.61477 35.0063H12.1867L17.5447 22.0841C20.4864 14.9401 22.9027 9.16189 22.9027 9.05683C22.9027 9.05683 22.1674 8.95178 19.3307 9.05683H15.7587L13.5526 14.5199C12.607 17.4616 11.6615 19.9829 11.6615 19.9829C11.6615 19.9829 10.7159 17.4616 9.45525 14.5199L7.35408 9.05683H3.67704C1.68094 8.95178 0 8.95178 0 8.95178ZM32.9883 14.6249C34.3541 14.9401 35.4047 15.9907 35.8249 17.3565C35.93 17.8818 35.93 18.8273 35.8249 19.3526C35.5098 20.7183 34.4591 21.7688 33.0934 22.0841C32.5681 22.1892 31.6226 22.1892 31.0973 22.0841C29.9416 21.7688 28.891 20.9284 28.4708 19.8778C27.9455 18.7222 28.1556 17.2514 28.786 16.2008C29.7315 14.835 31.3073 14.3097 32.9883 14.6249ZM74.9066 14.73C76.3774 14.9401 77.533 16.0957 77.8482 17.5665C77.9532 18.0918 77.9532 18.9323 77.8482 19.4576C77.533 20.8233 76.4825 21.7688 75.2217 22.1892C74.8015 22.2941 73.6459 22.2941 73.2256 22.1892C72.1751 21.8739 71.3345 21.1386 70.8092 20.193C70.4941 19.5627 70.4941 19.2475 70.4941 18.512C70.4941 17.8818 70.5992 17.5665 70.8092 17.0412C71.1245 16.4109 71.5447 15.7806 72.1751 15.3603C72.8053 14.73 73.8559 14.5199 74.9066 14.73ZM96.2334 14.73C97.494 14.9401 98.5446 15.7806 98.9648 16.9363C99.175 17.4616 99.2801 17.7767 99.2801 18.4071C99.2801 19.1424 99.175 19.4576 98.9648 20.088C98.5446 21.0335 97.5991 21.7688 96.5486 22.0841C96.1283 22.1892 94.9727 22.1892 94.5525 22.0841C93.2917 21.7688 92.2412 20.7183 91.926 19.3526C91.8209 18.8273 91.8209 17.8818 91.926 17.3565C92.3462 15.6755 93.817 14.5199 95.498 14.5199C95.7081 14.6249 96.0233 14.6249 96.2334 14.73ZM110.521 19.3526C108.525 19.5627 107.054 21.0335 106.634 22.9245C106.529 23.4498 106.529 24.3953 106.634 24.9207C107.054 26.6015 108.315 27.7572 109.996 28.1774C110.206 28.1774 110.626 28.2825 110.941 28.2825C112.202 28.2825 113.253 27.8623 114.093 27.0217C115.039 26.0762 115.354 25.1307 115.354 23.87C115.354 22.2941 114.619 20.9284 113.358 20.193C112.517 19.4576 111.362 19.2475 110.521 19.3526ZM55.1556 29.6483C53.7898 30.0685 53.1595 31.6444 53.8949 32.8C54.1051 33.1152 54.5253 33.5354 54.8404 33.6405C55.1556 33.7455 55.1556 33.7455 55.7859 33.7455C56.3112 33.7455 56.4163 33.7455 56.7315 33.6405C57.1517 33.4304 57.5719 33.0101 57.7821 32.5899C58.3074 31.5393 57.7821 30.2787 56.7315 29.7533C56.4163 29.5432 56.3112 29.5432 55.891 29.5432C55.4708 29.5432 55.3657 29.5432 55.1556 29.6483ZM49.4824 29.7533C47.6965 30.0685 46.5408 31.2242 46.0155 33.1152C45.9105 33.4304 45.9105 33.7455 45.9105 34.1657V34.9012H45.175H44.4397V36.4771V38.0529H45.175H45.9105V41.835V45.6171H47.9066H49.9026V41.835V38.0529H51.2684H52.6342V36.4771V34.9012H51.2684H49.9026V34.586C50.0077 33.8506 50.3229 33.3253 50.9532 33.2202C51.3735 33.1152 52.0038 33.1152 52.4241 33.3253C52.6342 33.4304 52.7392 33.4304 52.7392 33.4304C52.7392 33.4304 52.7392 32.695 52.7392 31.7495V30.0685L52.4241 29.9634C52.0038 29.7533 51.4785 29.7533 50.7432 29.7533C50.2179 29.6483 49.7977 29.7533 49.4824 29.7533ZM65.4513 34.691C64.6109 34.9012 63.9805 35.3214 63.5603 35.8467L63.3501 36.1618V35.5316V34.9012H61.354H59.358V40.2592V45.6171H61.354H63.3501V42.6755C63.3501 40.9945 63.3501 39.6288 63.3501 39.4186C63.4552 38.9984 63.6653 38.5782 63.8754 38.3681C64.4007 37.9479 65.3463 38.0529 65.7665 38.5782C66.0816 38.9984 66.0816 38.9984 66.0816 42.3603V45.5121H68.0777H70.0739V41.9401C70.0739 38.158 70.0739 37.7377 69.8637 37.0024C69.6536 36.372 69.4435 35.8467 68.9182 35.4265C68.4979 35.0063 68.0777 34.691 67.4475 34.586C66.9222 34.586 65.8716 34.586 65.4513 34.691ZM75.4319 34.586C74.8015 34.691 73.8559 35.0063 73.3307 35.4265C72.1751 36.2669 71.4396 37.5276 71.1245 39.1035C71.0194 39.7339 71.0194 40.8894 71.1245 41.5198C71.3345 42.4654 71.6498 43.4109 72.1751 44.0413C72.9104 44.9868 73.8559 45.6171 75.0116 45.8272C75.6419 45.9323 76.6925 45.9323 77.2178 45.7221C77.8482 45.5121 78.2684 45.3019 78.7937 44.8817L79.214 44.4615V44.9868V45.5121H81.2101H83.2061V40.1541V34.7961H81.2101H79.214V35.3214V35.8467L78.8988 35.7416C78.3735 35.2163 77.638 34.7961 76.7976 34.691C76.4825 34.586 75.747 34.586 75.4319 34.586ZM90.6653 34.691C89.9298 34.7961 89.1945 35.3214 88.7743 35.8467L88.5641 36.0569V35.4265V34.7961H86.568H84.5719V40.1541V45.5121H86.568H88.5641V42.4654C88.5641 39.2086 88.5641 39.2086 88.7743 38.6833C88.9843 38.2631 89.4045 38.0529 89.8249 38.0529C90.2451 38.0529 90.4551 38.158 90.7704 38.3681C91.1906 38.7884 91.1906 38.6833 91.1906 42.2552V45.407H93.1867H95.1827V41.5198C95.1827 37.6327 95.1827 37.6327 95.0778 37.2124C94.9727 37.0024 94.8676 36.5821 94.7625 36.2669C94.5525 35.8467 94.4474 35.7416 94.1323 35.4265C93.7119 35.0063 93.3968 34.7961 92.9766 34.586C92.2412 34.586 91.4007 34.481 90.6653 34.691ZM101.066 34.691C99.2801 35.0063 97.9143 35.8467 97.0738 37.3175C96.5786 38.308 96.3384 39.1568 96.3384 40.2592C96.3384 40.2592 96.3384 41.5198 96.6536 42.2552C97.284 44.0413 98.7548 45.407 100.751 45.8272C101.066 45.9323 101.381 45.9323 102.117 45.9323C103.167 45.9323 103.587 45.8272 104.323 45.5121L104.743 45.3019V43.516V41.73L104.428 41.9401C103.903 42.2553 103.587 42.3603 102.957 42.3603C102.327 42.3603 102.012 42.3603 101.591 42.1502C101.171 41.9401 100.856 41.6249 100.646 41.2047C100.541 40.8895 100.541 40.8895 100.541 40.3643C100.541 39.9439 100.541 39.839 100.646 39.5237C100.961 38.6833 101.696 38.2631 102.747 38.158C103.482 38.158 103.798 38.158 104.848 38.6833C104.848 38.6833 104.848 37.8428 104.848 36.8973V35.1113L104.533 35.0063C103.377 34.586 102.117 34.481 101.066 34.691ZM110.101 34.691C107.054 35.2163 105.163 37.8428 105.373 40.8895C105.479 41.9401 105.794 42.8856 106.319 43.621C107.054 44.7766 108.21 45.5121 109.681 45.8272C110.311 45.9323 111.992 45.9323 112.728 45.8272C113.778 45.6171 114.724 45.0919 115.459 44.3564C115.774 44.0413 116.3 43.3058 116.3 43.3058C116.3 43.3058 115.564 42.9907 114.619 42.6755L112.938 42.0451L112.728 42.2552C112.412 42.5704 112.202 42.6755 111.782 42.7805C110.626 43.0957 109.471 42.4654 109.261 41.4148V41.2047H112.938H116.615V40.2592C116.615 39.6288 116.615 39.2086 116.51 38.9984C116.3 37.7377 115.774 36.8973 115.039 36.0569C114.303 35.3214 113.463 34.9012 112.307 34.691C111.887 34.586 110.626 34.586 110.101 34.691ZM53.7898 40.2592V45.6171H55.7859H57.7821V40.2592V34.9012H55.7859H53.7898V40.2592ZM111.677 37.6327C111.992 37.7377 112.097 37.8428 112.412 38.0529C112.622 38.2631 112.833 38.4731 112.833 38.7884V38.9984H111.047C109.05 38.9984 109.156 38.9984 109.366 38.5782C109.681 37.8428 110.626 37.4226 111.677 37.6327ZM77.7431 38.158C78.2684 38.2631 78.8988 38.7884 79.1089 39.3137C79.6342 40.4692 79.1089 41.835 77.8482 42.2552C77.428 42.3603 76.7976 42.3603 76.3774 42.2552C75.747 42.0451 75.1166 41.5198 75.0116 40.8895C74.9066 40.5743 74.9066 40.4692 74.9066 40.1541C74.9066 39.7339 74.9066 39.6288 75.1166 39.3137C75.5369 38.3681 76.5874 37.9479 77.7431 38.158Z" fill="white"/>
</g>
<defs>
<clipPath id="clip0_30_7831">
<rect width="123.969" height="46.3435" fill="white" transform="translate(0 0.547119)"/>
</clipPath>
</defs>
</svg>
