<svg width="244" height="47" viewBox="0 0 244 47" fill="none" xmlns="http://www.w3.org/2000/svg">
<g clip-path="url(#clip0_30_7834)">
<path d="M0.96875 0.548096H18.7712C22.1621 0.548096 24.7053 1.39504 26.5892 2.8066C28.6614 4.50048 29.7917 6.94719 29.7917 9.95852C29.7917 13.4404 28.3789 15.6048 25.553 16.9222V17.1105C29.3207 18.3338 31.4872 21.7216 31.4872 25.7681C31.4872 29.6263 29.98 32.6377 27.531 34.5198C25.4588 36.0255 22.8214 36.6841 19.2421 36.6841H0.96875V0.548096ZM16.9815 14.6637C18.8654 14.6637 20.2782 13.6286 20.2782 11.4642C20.2782 9.3939 18.8653 8.35875 16.8873 8.35875H10.7648V14.5696H16.9815V14.6637ZM17.8292 28.6852C19.9957 28.6852 21.5969 27.3678 21.5969 25.0152C21.5969 22.4744 19.9016 21.3451 17.8292 21.3451H10.859V28.7794H17.8292V28.6852Z" fill="white"/>
<path d="M33.0898 0.548096H42.415V36.7782H33.0898V0.548096Z" fill="white"/>
<path d="M44.2969 23.8864C44.2969 15.6993 49.5716 10.2412 57.7664 10.2412C65.961 10.2412 71.1418 15.7934 71.1418 23.8864C71.1418 32.0734 65.961 37.5315 57.7664 37.5315C49.5716 37.5315 44.2969 32.0734 44.2969 23.8864ZM61.8167 23.8864C61.8167 19.3694 60.4038 16.5462 57.5779 16.5462C54.7522 16.5462 53.4335 19.3694 53.4335 23.8864C53.4335 28.4034 54.7522 31.3206 57.5779 31.3206C60.4038 31.2265 61.8167 28.4034 61.8167 23.8864Z" fill="white"/>
<path d="M72.1797 23.8864C72.1797 15.6993 77.4544 10.2412 85.6492 10.2412C93.844 10.2412 98.9305 15.6993 98.9305 23.8864C98.9305 32.0734 93.7499 37.5315 85.5551 37.5315C77.4544 37.5315 72.1797 32.0734 72.1797 23.8864ZM89.6996 23.8864C89.6996 19.3694 88.2866 16.5462 85.4609 16.5462C82.6352 16.5462 81.3163 19.3694 81.3163 23.8864C81.3163 28.4034 82.6352 31.3206 85.4609 31.3206C88.2866 31.2265 89.6996 28.4034 89.6996 23.8864Z" fill="white"/>
<path d="M100.812 10.8993H109.478V14.7576H109.667C111.362 11.7463 113.717 10.1465 117.485 10.1465C120.781 10.1465 123.23 11.7463 124.455 14.5694H124.643C126.715 11.1816 129.447 10.1465 132.65 10.1465C138.678 10.1465 141.221 14.5694 141.221 20.498V36.6839H132.179V22.0977C132.179 19.4628 131.331 17.7689 129.07 17.7689C126.81 17.7689 125.679 19.8392 125.679 22.6623V36.6839H116.637V22.0977C116.637 19.4628 115.789 17.7689 113.529 17.7689C111.268 17.7689 110.137 19.8392 110.137 22.6623V36.6839H100.812V10.8993Z" fill="white"/>
<path d="M152.619 33.2963H152.525V36.6841H143.859V0.548096H152.902V13.5345H153.09C154.786 11.276 157.14 10.0526 160.437 10.0526C166.937 10.0526 170.704 15.8871 170.704 23.6978C170.704 32.4494 166.654 37.531 159.872 37.531C157.046 37.531 154.126 36.2136 152.619 33.2963ZM161.379 23.6036C161.379 19.4631 159.872 16.734 157.14 16.734C154.315 16.734 152.619 19.4631 152.619 23.6036C152.619 27.7443 154.409 30.4732 157.14 30.4732C159.872 30.4732 161.379 27.8383 161.379 23.6036Z" fill="white"/>
<path d="M171.74 23.7916C171.74 15.6986 177.109 10.1465 184.833 10.1465C188.695 10.1465 191.615 11.3698 193.876 13.5342C196.89 16.4515 198.208 20.9685 198.114 26.2384H180.783C181.16 29.4378 182.667 31.1317 185.398 31.1317C186.999 31.1317 188.412 30.3789 188.977 28.685H197.737C196.23 34.6136 191.615 37.5308 185.116 37.5308C177.109 37.4367 171.74 31.9786 171.74 23.7916ZM180.783 21.0626H189.071C188.882 17.9571 187.188 16.3574 185.021 16.3574C182.478 16.2633 181.065 18.0512 180.783 21.0626Z" fill="white"/>
<path d="M208.381 15.3227H208.57C210.453 11.7468 212.902 10.3352 216.01 10.3352C216.763 10.3352 217.236 10.4293 217.517 10.6175V18.5223H217.328C211.96 17.5812 208.851 20.122 208.851 25.9566V36.7785H199.715V10.8998H208.381V15.3227Z" fill="white"/>
<path d="M218.459 36.778H227.219C227.596 37.9073 228.726 38.9426 230.892 38.9426C233.813 38.9426 234.849 37.1545 234.849 34.4256V32.5434H234.66C233.248 34.2372 231.27 35.4607 228.443 35.4607C222.886 35.4607 217.988 31.32 217.988 23.2271C217.988 15.7928 221.944 10.0525 227.972 10.0525C231.457 10.0525 233.529 11.464 234.942 13.6284H235.131V10.8053H243.797V33.2022C243.797 37.3427 242.384 40.5422 240.217 42.4244C237.956 44.4006 234.755 45.2476 231.081 45.2476C224.111 45.3415 219.306 42.5184 218.459 36.778ZM235.225 22.8506C235.225 19.6511 233.718 17.0162 231.081 17.0162C228.537 17.0162 226.936 19.2748 226.936 22.8506C226.936 26.3325 228.537 28.7792 231.081 28.7792C233.624 28.7792 235.225 26.2384 235.225 22.8506Z" fill="white"/>
</g>
<defs>
<clipPath id="clip0_30_7834">
<rect width="242.828" height="46.3412" fill="white" transform="translate(0.96875 0.548096)"/>
</clipPath>
</defs>
</svg>
