<svg width="147" height="47" viewBox="0 0 147 47" fill="none" xmlns="http://www.w3.org/2000/svg">
<g clip-path="url(#clip0_30_7845)">
<path fill-rule="evenodd" clip-rule="evenodd" d="M12.1176 45.9217H15.515V27.7721H12.1176V45.9217ZM24.5713 45.6494H27.6142V34.1982L40.4223 45.9217V28.0444H37.3879V39.2998L24.5713 27.7721V45.6494ZM47.3688 41.2538C49.0249 42.5442 51.0128 43.29 53.144 43.29C55.2198 43.29 56.6761 42.5754 56.6761 40.9972C56.6761 39.6217 55.7474 39.083 54.121 38.4803L51.4879 37.5658C49.0605 36.7037 47.2142 35.4445 47.2142 32.5505C47.2142 29.4552 50.0091 27.7721 53.351 27.7721C55.3986 27.7721 57.2645 28.2868 58.7222 29.1986V32.2684C57.2064 31.1482 55.5475 30.3768 53.4163 30.3768C51.5814 30.3768 50.2103 31.0617 50.2103 32.4896C50.2103 33.7798 51.071 34.2961 52.5868 34.8149L55.5205 35.8444C58.3635 36.844 59.6679 38.3938 59.6679 40.9433C59.6679 44.1507 56.8463 45.9217 53.144 45.9217C50.7109 45.9217 48.6421 45.241 47.3688 44.3817V41.2538ZM67.5942 45.9217H70.9901V27.7721H67.5942V45.9217ZM86.922 43.1751C90.7504 43.1751 92.7964 40.7193 92.7964 36.8426C92.7964 32.9377 90.749 30.4903 86.922 30.4903H83.1361V43.1751H86.922ZM80.045 27.7721H87.0354C92.4164 27.7721 95.8961 31.317 95.8961 36.8426C95.8961 42.3726 92.4164 45.9217 87.0354 45.9217H80.045V27.7721ZM112.88 27.7721V30.4903H104.66V34.8575H112.032V37.5445H104.659V43.1751H112.88V45.9217H101.558V27.7721H112.88ZM124.935 35.9905H128.306C130.301 35.9905 131.425 34.8958 131.425 33.2128C131.425 31.5296 130.301 30.4335 128.306 30.4335H124.935V35.9919V35.9905ZM124.935 38.557V45.9217H121.936V27.7721H128.363C132.026 27.7721 134.397 29.6593 134.397 33.2128C134.397 36.2514 133.081 37.9968 130.278 38.4449L136.654 45.9217H133.243L127.069 38.5584H124.937L124.935 38.557ZM10.9308 9.89201C12.2594 9.40566 13.2945 7.94661 13.2945 5.94024C13.2945 2.59676 10.9308 0.86405 7.14921 0.86405H0.796875V19.5283H7.73906C11.5207 19.5283 13.8844 17.6737 13.8844 14.1784C13.8844 12.2018 12.6437 10.4691 10.9308 9.89201ZM3.78021 8.70662V3.60065H7.12085C9.21938 3.60065 10.341 4.36067 10.341 6.12315C10.341 7.88564 9.21797 8.70662 7.12085 8.70662H3.78021ZM3.78021 11.3213H7.67952C9.74969 11.3213 10.8713 12.3536 10.8713 14.0565C10.8713 15.7282 9.74827 16.793 7.68093 16.793H3.78162V11.3199L3.78021 11.3213ZM27.7446 19.8317C32.0878 19.8317 35.013 17.217 35.013 12.1111V0.86405H31.9402V11.7453C31.9402 15.3326 30.4628 17.0058 27.7446 17.0058C25.0265 17.0058 23.5504 15.3326 23.5504 11.7453V0.86405H20.4778V12.0799C20.4778 17.217 23.4313 19.8317 27.7446 19.8317ZM42.2472 18.1898C43.5177 19.1028 45.5865 19.8317 48.0084 19.8317C51.7021 19.8317 54.5081 17.9458 54.5081 14.5428C54.5081 11.8374 53.2093 10.1955 50.3719 9.13201L47.4482 8.03736C45.9409 7.49145 45.0845 6.94414 45.0845 5.57584C45.0845 4.05581 46.4428 3.327 48.2749 3.327C50.4018 3.327 52.0565 4.14656 53.5637 5.33337V2.07922C52.1161 1.10793 50.2542 0.560613 48.2153 0.560613C44.8775 0.560613 42.0998 2.3543 42.0998 5.6368C42.0998 8.70662 43.9318 10.0437 46.3535 10.9555L48.9838 11.9282C50.6088 12.5662 51.5247 13.1447 51.5247 14.6037C51.5247 16.2756 50.077 17.0356 48.0084 17.0356C45.8814 17.0356 43.9019 16.2444 42.2472 14.8774V18.1898ZM65.4871 0.86405H62.4159V19.5269H65.4871V0.86405ZM74.2528 19.5042H77.2134V7.36243L89.6743 19.7935V0.835692H86.722V12.7704L74.2528 0.547852V19.5042ZM108.874 0.868304V3.66305H100.897V8.15505H108.051V10.9186H100.897V16.7081H108.874V19.5325H97.8855V0.868304H108.874ZM116.028 18.177C117.298 19.0902 119.366 19.819 121.789 19.819C125.481 19.819 128.289 17.9345 128.289 14.5301C128.289 11.8247 126.989 10.1841 124.153 9.11924L121.227 8.02601C119.72 7.4787 118.864 6.93138 118.864 5.56307C118.864 4.04305 120.222 3.31423 122.054 3.31423C124.181 3.31423 125.836 4.13521 127.343 5.32061V2.06788C125.895 1.09517 124.033 0.547852 121.995 0.547852C118.657 0.547852 115.879 2.34153 115.879 5.62405C115.879 8.69387 117.711 10.031 120.133 10.9427L122.763 11.9154C124.388 12.5535 125.304 13.132 125.304 14.5911C125.304 16.2628 123.858 17.0228 121.787 17.0228C119.661 17.0228 117.681 16.233 116.028 14.8647V18.177ZM134.583 18.177C135.853 19.0902 137.922 19.819 140.344 19.819C144.038 19.819 146.844 17.9345 146.844 14.5301C146.844 11.8247 145.543 10.1841 142.708 9.11924L139.782 8.02601C138.277 7.4787 137.419 6.93138 137.419 5.56307C137.419 4.04305 138.779 3.31423 140.609 3.31423C142.736 3.31423 144.392 4.13521 145.899 5.32061V2.06788C144.452 1.09517 142.59 0.547852 140.551 0.547852C137.212 0.547852 134.435 2.34153 134.435 5.62405C134.435 8.69387 136.267 10.031 138.689 10.9427L141.319 11.9154C142.944 12.5535 143.861 13.132 143.861 14.5911C143.861 16.2628 142.413 17.0228 140.344 17.0228C138.217 17.0228 136.238 16.233 134.583 14.8647V18.177Z" fill="white"/>
</g>
<defs>
<clipPath id="clip0_30_7845">
<rect width="146.047" height="46.3418" fill="white" transform="translate(0.796875 0.547852)"/>
</clipPath>
</defs>
</svg>
