<svg width="118" height="47" viewBox="0 0 118 47" fill="none" xmlns="http://www.w3.org/2000/svg">
<g clip-path="url(#clip0_30_7849)">
<path d="M17.3501 4.71938H21.0947C23.375 4.38343 25.7039 4.67879 27.8283 5.57339C30.4932 7.1768 32.4263 9.75816 33.2151 12.7668C33.7734 14.3434 33.7734 14.3434 35.1202 13.785H36.1712V1.30332H0.926852V3.50404H2.3721C3.00015 3.4997 3.62119 3.6361 4.18959 3.90325C4.758 4.1704 5.25933 4.56151 5.65677 5.04784C7.00347 7.21572 7.2334 9.64636 7.2334 22.2923C7.2334 35.7265 6.93778 39.0112 5.65677 40.6864C5.34051 41.117 4.93108 41.4706 4.459 41.7209C3.98692 41.9711 3.46443 42.1116 2.93049 42.1316C0.926853 42.4929 0.926852 42.4601 0.926852 43.347C0.816049 43.6436 0.816049 43.9701 0.926852 44.2666H23.1639C23.3111 43.9766 23.3878 43.6559 23.3878 43.3305C23.3878 43.0052 23.3111 42.6845 23.1639 42.3944C22.6254 42.2445 22.0765 42.1348 21.5217 42.0659C20.9215 41.9946 20.3283 41.8737 19.7479 41.7046C18.917 41.098 18.2587 40.2849 17.8382 39.346C17.4177 38.407 17.2495 37.3745 17.3501 36.3507C17.0217 34.1827 16.8575 30.2084 16.8575 26.9237V24.3287H18.1713C19.8083 24.2787 21.4442 24.4556 23.0326 24.8543C23.7935 25.3246 24.4414 25.9569 24.9295 26.7065C25.4179 27.456 25.7348 28.3041 25.8575 29.1901L26.1531 30.2084H28.1567V15.6573H26.3172L26.0216 17.0697C25.8973 17.9758 25.562 18.8401 25.043 19.5931C24.5238 20.3462 23.8352 20.9669 23.0326 21.4054C22.2553 21.6368 21.4363 21.6929 20.6348 21.5697H16.8575V18.0223C16.8575 14.3434 17.0545 6.59162 17.1859 5.37631L17.3501 4.71938ZM171.072 30.7667C169.519 28.2678 167.098 26.4311 164.273 25.6098C162.108 24.9328 160.105 23.8145 158.393 22.3252C158.008 21.9525 157.72 21.4914 157.554 20.9818C157.388 20.4723 157.349 19.9298 157.441 19.4018C157.443 18.3662 157.857 17.3738 158.59 16.6428C159.088 16.1219 159.717 15.746 160.411 15.5551C161.106 15.3642 161.839 15.3655 162.533 15.5587C163.968 15.968 165.267 16.758 166.29 17.8451C167.314 18.9322 168.023 20.2759 168.346 21.7339C168.872 23.2121 168.937 23.2121 169.89 22.8178L170.481 22.5879V14.4091L170.054 14.212C166.82 13.0763 163.391 12.607 159.97 12.8325C157.025 12.9071 154.214 14.0785 152.087 16.1171C151.122 17.02 150.367 18.123 149.873 19.3485C149.379 20.574 149.16 21.8926 149.229 23.2121C149.248 25.2292 150.048 27.1604 151.463 28.5989C153.026 30.136 154.944 31.2642 157.047 31.8835C162.138 33.8871 163.616 35.1682 163.616 37.5003C163.638 38.4837 163.325 39.4454 162.728 40.2273C162.132 41.0093 161.286 41.5649 160.331 41.8032C159.184 42.0552 157.997 42.0552 156.85 41.8032C155.348 41.2204 154.007 40.2873 152.939 39.082C151.871 37.8765 151.105 36.4333 150.707 34.8726L150.28 33.8214H149.689C149.406 33.8425 149.129 33.909 148.868 34.0186H148.539V43.347H149.098C151.317 44.0851 153.606 44.5915 155.93 44.8579H159.215C160.639 44.9624 162.071 44.8293 163.451 44.4637C165.204 44.1402 166.842 43.3638 168.202 42.2113C169.562 41.0588 170.598 39.5706 171.203 37.8944C171.595 36.9583 171.796 35.9531 171.795 34.9382C171.924 33.5084 171.675 32.0697 171.072 30.7667ZM140.131 13.785C138.162 12.9586 136.042 12.5578 133.907 12.6087C131.773 12.6597 129.674 13.1613 127.748 14.0806C125.937 14.9665 124.332 16.2222 123.036 17.7668C121.74 19.3112 120.783 21.1104 120.226 23.0478C119.515 25.1613 119.214 27.3908 119.339 29.6171C119.315 30.8284 119.414 32.0389 119.634 33.2302C120.165 36.1594 121.579 38.8563 123.687 40.9583C125.795 43.0603 128.496 44.467 131.426 44.9893C133.335 45.2297 135.266 45.2297 137.175 44.9893C139.155 44.6403 141.05 43.9156 142.758 42.8542C144.171 42.0622 145.367 40.934 146.24 39.5695C146.184 39.3556 146.085 39.155 145.95 38.98C145.815 38.805 145.645 38.6592 145.452 38.5513C145.077 38.6871 144.723 38.875 144.401 39.1098C142.767 40.1865 140.838 40.7261 138.882 40.6536C137.585 40.7413 136.284 40.5392 135.074 40.062C133.864 39.5849 132.775 38.8444 131.886 37.8944C131.199 37.256 130.631 36.4995 130.211 35.6609C129.19 33.6189 128.64 31.3741 128.602 29.0915V27.8106H146.799V27.1537C146.839 26.4972 146.839 25.8392 146.799 25.1829C146.792 22.8636 146.172 20.5872 145.001 18.5854C143.829 16.5835 142.149 14.9273 140.131 13.785ZM130.967 25.1499H128.667V23.2121C129.423 18.2521 131.295 15.296 133.594 15.296C135.893 15.296 136.879 18.2193 137.306 23.5734V25.0843H135.335L130.967 25.1499ZM83.7331 12.7011C82.5981 12.6571 81.4699 12.894 80.4485 13.3909C78.2284 14.469 76.4353 16.2621 75.3573 18.482L74.9302 19.2705V12.7011H74.766C74.3718 12.7011 62.2187 15.1317 61.8244 15.296C61.4302 15.4602 61.5617 15.4931 61.5617 16.0843C61.5617 16.6755 61.5617 16.7741 61.8244 16.8069L63.1054 17.0697C63.4643 17.0785 63.8163 17.1688 64.135 17.3339C64.4536 17.499 64.7307 17.7343 64.9448 18.0223C65.766 19.1062 65.9303 21.0113 65.9303 29.1245C66.0925 32.7768 65.9386 36.4364 65.4704 40.0623C65.3601 40.609 65.0829 41.1081 64.677 41.4905C64.271 41.8729 63.7563 42.1199 63.204 42.1973L62.0872 42.4272H61.6602V43.347C61.5411 43.6533 61.5411 43.9932 61.6602 44.2996H80.0215V43.347C80.0851 43.0327 80.0851 42.7088 80.0215 42.3944C78.916 42.3513 77.8166 42.2084 76.7368 41.9675C76.1488 41.6599 75.6678 41.1814 75.357 40.5951C75.0462 40.0087 74.9204 39.342 74.996 38.6828C74.7331 36.7777 74.6018 31.1937 74.6675 26.9237C74.7331 22.6536 74.6674 22.3909 75.0288 22.0952C76.1278 21.2525 77.4881 20.8223 78.8717 20.8798C80.1762 20.9084 81.457 21.2341 82.6163 21.8324C83.0182 22.0556 83.4495 22.2215 83.8974 22.3252C83.8974 22.3252 87.1821 14.3763 87.1821 14.0149C86.7616 13.5265 86.2262 13.1506 85.624 12.9212C85.0218 12.6918 84.3719 12.6161 83.7331 12.7011ZM61.5945 26.4967C61.4799 24.1495 60.8061 21.8637 59.629 19.8296C58.4521 17.7955 56.806 16.0723 54.8281 14.8033C52.4777 13.5352 49.8624 12.836 47.1928 12.7619C44.5231 12.6877 41.8731 13.2407 39.4559 14.3763C36.0382 16.1785 33.4577 19.242 32.2625 22.9164C31.0281 27.0301 31.0281 31.4156 32.2625 35.5295C32.9097 37.7777 34.1192 39.8239 35.7771 41.4746C37.8417 43.4894 40.5041 44.7802 43.3647 45.1535C45.2009 45.3071 47.0466 45.3071 48.8828 45.1535C49.5586 45.0508 50.2276 44.9081 50.8866 44.7265C53.5602 43.9787 55.9654 42.4847 57.821 40.4198C59.6766 38.3547 60.9058 35.804 61.3645 33.066C61.6925 30.8923 61.7696 28.688 61.5945 26.4967ZM47.9303 42.92C44.6456 43.9053 42.1822 40.7193 41.361 34.0186C41.0594 30.5104 41.0594 26.9828 41.361 23.4748C42.0179 18.088 43.6931 15.3617 46.288 15.3617C46.8115 15.3292 47.3352 15.4226 47.8152 15.6341C48.2953 15.8455 48.7176 16.1688 49.0471 16.5769C51.2479 18.7777 52.3318 23.1462 52.3318 29.7156C52.605 33.4334 52.0206 37.1644 50.6237 40.6207C50.0069 41.6287 49.0526 42.3852 47.9303 42.7557V42.92ZM107.054 13.358C106.127 13.2388 105.189 13.2388 104.262 13.358C102.483 13.3565 100.724 13.7374 99.1053 14.4748L98.087 14.9018V7.7741C98.2651 5.36864 98.2651 2.95331 98.087 0.547852C97.693 0.547852 85.1456 2.94566 84.9484 3.04419C84.8516 3.2867 84.8516 3.55716 84.9484 3.79967C84.9484 4.48944 84.9484 4.4566 86.4265 4.78507C86.8415 4.87813 87.2402 5.03316 87.609 5.24492C88.2502 5.84784 88.677 6.64365 88.8243 7.51133C89.1982 10.011 89.3194 12.5421 89.1856 15.066V43.9053L90.0725 44.1024C91.3864 44.398 95.098 45.0222 96.3134 45.1535C98.7401 45.3466 101.178 45.3466 103.605 45.1535C106.299 44.8783 108.866 43.8734 111.031 42.2469C113.196 40.6205 114.876 38.4342 115.89 35.9236C116.495 34.3123 116.913 32.6371 117.138 30.931C117.334 28.6197 117.256 26.2935 116.908 24.0004C116.556 21.4298 115.421 19.0298 113.658 17.1261C111.896 15.2223 109.59 13.9068 107.054 13.358ZM98.4483 42.3615C98.4483 41.9345 98.12 27.5477 98.1856 21.7996V17.2997L99.1382 17.0697C99.7809 16.9775 100.433 16.9775 101.076 17.0697C101.787 16.9973 102.502 17.1589 103.113 17.5295C104.339 18.3761 105.358 19.4899 106.092 20.7871C106.826 22.0844 107.256 23.531 107.35 25.0186C107.589 27.4105 107.589 29.8201 107.35 32.2119C107.153 35.6883 105.814 39.0022 103.54 41.6389C102.894 42.2521 102.084 42.6631 101.208 42.8214C100.545 42.9366 99.8667 42.9366 99.2039 42.8214C98.5799 42.8214 98.5797 42.6244 98.5797 42.3615H98.4483Z" fill="white"/>
</g>
<defs>
<clipPath id="clip0_30_7849">
<rect width="170.984" height="46.3416" fill="white" transform="translate(0.84375 0.547852)"/>
</clipPath>
</defs>
</svg>
